<?xml version="1.0" encoding="utf-8"?>
<!-- Generator: Adobe Illustrator 18.0.0, SVG Export Plug-In . SVG Version: 6.00 Build 0)  -->
<!DOCTYPE svg PUBLIC "-//W3C//DTD SVG 1.1//EN" "http://www.w3.org/Graphics/SVG/1.1/DTD/svg11.dtd">
<svg version="1.1" id="Layer_1" xmlns="http://www.w3.org/2000/svg" xmlns:xlink="http://www.w3.org/1999/xlink" x="0px" y="0px"
	 width="256px" height="256px" viewBox="0 0 256 256" enable-background="new 0 0 256 256" xml:space="preserve">
<g>
	<g>
		<g>
			<g>
				<g>
					<g>
						<path fill="#4A555F" d="M138.9,212.9c-2,0-4-0.4-5.9-1.3l-39.1-18.6l1.4-3l39.1,18.6c3.3,1.6,7,1.3,10.1-0.6
							c3.1-1.9,4.9-5.2,4.9-8.8c0-3.9-2.2-7.5-5.6-9.3l-45.3-23.6H57.2v-3.3h42l46,24c4.6,2.4,7.4,7,7.4,12.2
							c0,4.7-2.4,9.1-6.4,11.6C144,212.2,141.4,212.9,138.9,212.9z"/>
					</g>
					<g>
						<path fill="#4A555F" d="M147.3,246.6c-8,0-16.1-1.6-23.7-4.9L61.8,215h-4.5v-3.3h5.2l62.5,27c15.1,6.5,32.2,6.1,47-1.1
							l74.7-36.3c5.3-2.6,7.5-8.7,5.1-14.1c-2.4-5.4-8.5-7.8-14-5.5l-64.1,27c-12.8,5.4-30,10.1-49.5-1.4l1.7-2.8
							c14.4,8.5,28.3,8.9,46.5,1.2l64.1-27c7.1-3,15.1,0.2,18.2,7.2c3.1,7,0.2,15-6.7,18.4l-74.7,36.3
							C165.2,244.6,156.3,246.6,147.3,246.6z"/>
					</g>
					<g>
						<g>
							<path fill="#E0E0E0" d="M248,189c-1.1-2.5-3.5-3.9-6-3.9c-0.9,0-1.7,0.2-2.6,0.5l-64.1,27c-10.9,4.6-19.9,6.3-27.5,6.3
								c-11.9,0-20.1-4.2-26-8.2l-29.7-14.1l5-10.4l39.1,18.6c0.9,0.4,1.8,0.6,2.7,0.6c1.2,0,2.3-0.3,3.4-1c1.9-1.2,3-3.1,3-5.4
								c0-2.4-1.3-4.5-3.4-5.6l-44.4-23.2l-34.2,0v37.6l-0.3,0l0.3,0.1l63.4,26.9c6.6,2.9,13.7,4.3,20.7,4.3
								c7.8,0,15.6-1.8,22.8-5.3l74.7-36.3C248.1,196,249.5,192.2,248,189z"/>
						</g>
					</g>
					<g>
						<path fill="#4A555F" d="M58.9,236H0v-93.8h58.9V236z M3.3,232.8h52.3v-87.3H3.3V232.8z"/>
					</g>
					<g>
						<rect x="7.4" y="149.6" fill="#FFD552" width="44" height="79"/>
					</g>
					<g>
						<path fill="#4A555F" d="M21.2,175c-5.5,0-9.9-4.4-9.9-9.9s4.4-9.9,9.9-9.9s9.9,4.4,9.9,9.9S26.6,175,21.2,175z M21.2,158.5
							c-3.7,0-6.6,3-6.6,6.6s3,6.6,6.6,6.6s6.6-3,6.6-6.6S24.8,158.5,21.2,158.5z"/>
					</g>
					<g>
						<circle fill="#FFD552" cx="21.2" cy="165.1" r="2.5"/>
					</g>
				</g>
				<g>
					<g>
						<path fill="#4A555F" d="M138.8,212.9c-2,0-4-0.5-5.9-1.4l-8.8-4.2l-0.2-0.2l1.2-1.2l0.2-0.3l0.5-1.1l8.5,4.1
							c1.4,0.7,3,1,4.5,1c5.8,0,10.5-4.7,10.5-10.5c0-3.9-2.2-7.5-5.6-9.3l-1-0.5l1.5-2.9l1,0.5c4.6,2.4,7.4,7,7.4,12.2
							C152.6,206.7,146.4,212.9,138.8,212.9z"/>
					</g>
					<g>
						<path fill="#4A555F" d="M149.2,214.5c-7.7,0-16-1.9-24.9-7.1l-0.4-0.3l1.4-1.4l-0.2,0.2l0.5-0.7l0.4-0.6c0,0,0,0,0.1,0l0,0
							l0,0c14.4,8.4,28.3,8.8,46.4,1.2l18.6-7.9l1.3,3l-18.6,7.9C166.7,211.7,158.4,214.5,149.2,214.5z"/>
					</g>
				</g>
				<g>
					<g>
						<path fill="#4A555F" d="M138.8,212.9c-2,0-4-0.5-5.9-1.4l-17.2-8.2l1.4-3l17.2,8.2c1.4,0.7,3,1,4.5,1
							c5.8,0,10.5-4.7,10.5-10.5c0-3.9-2.2-7.5-5.6-9.3l-1-0.5l1.5-2.9l1,0.5c4.6,2.4,7.4,7,7.4,12.2
							C152.6,206.7,146.4,212.9,138.8,212.9z"/>
					</g>
					<g>
						<path fill="#4A555F" d="M149.3,214.6c-7.6,0-15.9-2-25-7.2l-0.4-0.3l1.2-1.2l0.5-0.7l0.4-0.7c0,0,0,0,0.1,0l0,0l0,0
							c18.3,10.5,33.1,6.8,46.4,1.2l18.6-7.9l1.3,3l-18.6,7.9C166.1,212,158.1,214.6,149.3,214.6z"/>
					</g>
				</g>
			</g>
			<g>
				<g>
					<g>
						<path fill="#4A555F" d="M148.6,195.3c-0.9-2.3-2.7-4.2-4.9-5.4l-1-0.5l-44.3-23.1H79.2v-3.3h20l46,24c2.9,1.5,5.2,4,6.4,7.1
							L148.6,195.3z"/>
					</g>
				</g>
				<g>
					<g>
						<path fill="#4A555F" d="M148.6,195.3c-0.9-2.3-2.7-4.2-4.9-5.4l-1-0.5l1.5-2.9l1,0.5c2.9,1.5,5.2,4,6.4,7.1L148.6,195.3z"/>
					</g>
				</g>
				<g>
					<g>
						<path fill="#4A555F" d="M148.6,195.3c-0.9-2.3-2.7-4.2-4.9-5.4l-1-0.5l1.5-2.9l1,0.5c2.9,1.5,5.2,4,6.4,7.1L148.6,195.3z"/>
					</g>
				</g>
			</g>
		</g>
	</g>
	<g>
		<path fill="#4A555F" d="M137,139.9l-1-1.1c-7.6-7.9-15.2-15.7-22.6-23.2c-7-7.1-14.3-14.5-21.5-22.1c-9.6,9.1-20,17.6-30.1,25.8
			l-7.3,6V81.4l0.6-0.5c5.4-4.7,10.9-9.2,16.2-13.5c7.7-6.2,15.6-12.7,23.3-19.8l1.2-1.1l1.1,1.2c4.1,4.2,8.1,8.6,12,12.7
			c10.7,11.5,20.8,22.3,32.2,32.7c5.8-4.7,11.7-9.5,17.6-14.3c10.5-8.5,21.4-17.3,31.9-26.1L175.2,36H231v61.6l-18.3-18.3
			c-19.3,16.4-46.3,37.5-66.1,53.1L137,139.9z M92,88.9l1.1,1.2c7.6,7.9,15.2,15.7,22.6,23.2c7.1,7.2,14.4,14.6,21.6,22.2l7.1-5.6
			c20.2-15.8,47.8-37.5,67.2-54l1.2-1l14.9,14.8V39.3h-45l12.5,13.7l-1.3,1.1c-10.9,9.1-22.2,18.3-33.2,27.2
			c-6.3,5.1-12.5,10.1-18.7,15.2l-1.1,0.9l-1-1C128,85.7,117,74,106.4,62.7c-3.5-3.8-7.2-7.7-10.9-11.5C88.2,57.9,80.6,64.1,73.3,70
			c-5.1,4.1-10.4,8.4-15.6,12.9v35.5l2-1.6c10.4-8.5,21.2-17.3,31.1-26.8L92,88.9z"/>
	</g>
	<g>
		<path fill="#71CDE1" d="M137.7,130.3c-6.5-6.7-13-13.3-19.3-19.7c-7.4-7.5-15-15.3-22.6-23.2l-3.8-4l-4,3.8
			c-8.4,8-17.5,15.7-26.5,23.1V84.7c4.7-4,9.5-7.9,14.2-11.7c6.5-5.2,13.1-10.6,19.7-16.5c2.8,3,5.6,5.9,8.3,8.8
			c10.6,11.4,21.7,23.2,33.6,34l3.5,3.2l3.7-3c6.1-5,12.4-10.1,18.6-15.1c11-8.9,22.4-18.1,33.3-27.3l4.4-3.7l-9.4-10.3h32.5v37.3
			L213,69.7l-3.8,3.3c-19.3,16.4-46.9,38.1-67.1,53.9L137.7,130.3z"/>
	</g>
	<g>
		<g>
			<rect x="208.4" y="115.3" fill="#4A555F" width="3.3" height="7.6"/>
		</g>
		<g>
			<rect x="208.4" y="130.3" fill="#4A555F" width="3.3" height="7.6"/>
		</g>
		<g>
			<rect x="213.8" y="124.9" fill="#4A555F" width="7.6" height="3.3"/>
		</g>
		<g>
			<rect x="198.8" y="124.9" fill="#4A555F" width="7.6" height="3.3"/>
		</g>
	</g>
	<g>
		<g>
			<rect x="137.7" y="9.4" fill="#4A555F" width="3.3" height="7.6"/>
		</g>
		<g>
			<rect x="137.7" y="24.4" fill="#4A555F" width="3.3" height="7.6"/>
		</g>
		<g>
			<rect x="143.1" y="19" fill="#4A555F" width="7.6" height="3.3"/>
		</g>
		<g>
			<rect x="128.1" y="19" fill="#4A555F" width="7.6" height="3.3"/>
		</g>
	</g>
	<g>
		<g>
			<rect x="29.7" y="58.4" fill="#4A555F" width="3.3" height="7.6"/>
		</g>
		<g>
			<rect x="29.7" y="73.4" fill="#4A555F" width="3.3" height="7.6"/>
		</g>
		<g>
			<rect x="35.1" y="68" fill="#4A555F" width="7.6" height="3.3"/>
		</g>
		<g>
			<rect x="20.1" y="68" fill="#4A555F" width="7.6" height="3.3"/>
		</g>
	</g>
</g>
</svg>
