<svg version="1.1" id="Layer_1" xmlns="http://www.w3.org/2000/svg" xmlns:xlink="http://www.w3.org/1999/xlink" x="0px" y="0px" viewBox="0 0 1200 1200" enable-background="new 0 0 1200 1200" xml:space="preserve">
<g>
<path fill="#460c68" d="M1006.311,1149.996H211.475C93.878,1149.996,50,1106.764,50,978.385V165.986
		c0-51.274,44.557-115.983,123.645-115.983h832.551c94.184,0,143.797,64.709,143.797,143.797v823.45
		C1150.771,1117.151,1086.98,1149.996,1006.311,1149.996z" id="id_119"></path>
<path fill="#460c68" d="M1023.565,1130.012H176.429c-58.545,0-106.445-47.9-106.445-106.445V176.432
		c0-58.545,47.9-106.444,106.445-106.444h847.135c58.545,0,106.444,47.9,106.444,106.444v847.135
		C1130.009,1082.112,1082.109,1130.012,1023.565,1130.012z" id="id_120"></path>
<g>
<circle fill="#D00F2E" cx="606.517" cy="605.283" r="418.678" id="id_121"></circle>
<circle fill="#FFFFFF" cx="606.517" cy="605.283" r="274.691" id="id_122"></circle>
<circle fill="#D00F2E" cx="606.517" cy="605.283" r="120.704" id="id_123"></circle>
</g>
<path opacity="0.21" fill="#211915" d="M590.701,601.973c0,0,132.844,408.918,132.844,405.245c0-3.674,22.442-10.582,22.442-10.582
		L597.012,591.246L590.701,601.973z" id="id_124"></path>
<g>
<path fill="#4B4A4B" d="M1006.379,794.175L590.701,601.973c-8.338-10.3,6.311-10.728,6.311-10.728s287.48,125.063,419.468,181.808
			c0,0,23.876,6.428,18.366,22.039C1031.79,803.752,1020.154,800.603,1006.379,794.175z" id="id_125"></path>
<polygon fill="#70AFCA" points="936.148,739.602 989.868,691.679 1108.31,707.855 1029.74,779.729 		" id="id_126"></polygon>
<polygon fill="#70AFCA" points="929.828,756.817 933.471,842.82 1018.199,897.644 1018.199,797.964 		" id="id_127"></polygon>
</g>
</g>
</svg>