<?xml version="1.0" encoding="UTF-8"?>
<!DOCTYPE svg PUBLIC "-//W3C//DTD SVG 1.1//EN" "http://www.w3.org/Graphics/SVG/1.1/DTD/svg11.dtd">
<!-- Creator: CorelDRAW -->
<svg xmlns="http://www.w3.org/2000/svg" xml:space="preserve" width="6.82666in" height="6.82666in" style="shape-rendering:geometricPrecision; text-rendering:geometricPrecision; image-rendering:optimizeQuality; fill-rule:evenodd; clip-rule:evenodd"
viewBox="0 0 6.82666 6.82666"
 xmlns:xlink="http://www.w3.org/1999/xlink">
 <defs>
  <style type="text/css">
   <![CDATA[
    .fil1 {fill:none}
    .fil0 {fill:#212121;fill-rule:nonzero}
   ]]>
  </style>
 </defs>
 <g id="Layer_x0020_1">
  <metadata id="CorelCorpID_0Corel-Layer"/>
  <path class="fil0" d="M1.13081 3.5522c-0.0310354,-0.0419646 -0.046563,-0.0932874 -0.046563,-0.143528 0,-0.0500433 0.0154055,-0.101165 0.0462008,-0.143035l-0.000267717 -0.000177165c0.208071,-0.312094 0.43985,-0.565736 0.687846,-0.764114 0.458638,-0.36687 0.969693,-0.540461 1.48707,-0.542106 0.515311,-0.0016378 1.03472,0.167425 1.51258,0.486012 0.31211,0.208083 0.607433,0.481134 0.872996,0.813122 0.0344921,0.0431614 0.0517441,0.0973307 0.0517441,0.150299 0,0.0501929 -0.0154961,0.101461 -0.0464685,0.143421 -0.245465,0.36787 -0.537906,0.658496 -0.85761,0.871787 -0.440638,0.293976 -0.932638,0.440961 -1.425,0.440957 -0.492362,-3.93701e-006 -0.984358,-0.146996 -1.42499,-0.440965 -0.319673,-0.213268 -0.612091,-0.503862 -0.857535,-0.871673zm0.166776 -0.143528c0,0.0077126 0.0014252,0.014248 0.00426378,0.0177953l0.00541732 0.00708661c0.229583,0.344122 0.502142,0.615327 0.799409,0.81365 0.404823,0.270079 0.855941,0.40513 1.30666,0.40513 0.45072,0 0.901839,-0.135039 1.30667,-0.405122 0.297268,-0.198323 0.569823,-0.469524 0.799413,-0.813657l0.00541732 -0.00708661c0.00282283,-0.00353543 0.00424016,-0.0100709 0.00424016,-0.0177953 0,-0.00772441 -0.00141732,-0.0142598 -0.00424016,-0.0177953 -0.250244,-0.312839 -0.529516,-0.570799 -0.825492,-0.768122 -0.443417,-0.295622 -0.922232,-0.452512 -1.39425,-0.451012 -0.469965,0.00149213 -0.935398,0.160142 -1.35456,0.495437 -0.229465,0.183555 -0.445969,0.421303 -0.642846,0.71661l-0.00583465 0.00708661c-0.00283858,0.00354724 -0.00426378,0.0100827 -0.00426378,0.0177953z"/>
  <path class="fil0" d="M3.41332 2.88038c-0.144657,0 -0.277575,0.0590945 -0.373949,0.155461 -0.0949803,0.0949764 -0.15437,0.226228 -0.15437,0.372819 0,0.147992 0.0581654,0.28015 0.153165,0.37515 0.0950039,0.0950039 0.227173,0.153169 0.375154,0.153169 0.143315,0 0.275315,-0.0603346 0.371657,-0.156673 0.0963346,-0.0963346 0.156673,-0.228327 0.156673,-0.371646 0,-0.144654 -0.0590984,-0.277559 -0.155469,-0.373917 -0.0949843,-0.0949764 -0.226256,-0.154362 -0.372862,-0.154362zm-0.524783 0.00462598c0.135122,-0.13511 0.321642,-0.217965 0.524783,-0.217965 0.20587,0 0.390248,0.0834291 0.523697,0.216866 0.135118,0.135102 0.217972,0.321606 0.217972,0.524752 0,0.202213 -0.0844094,0.387713 -0.219177,0.52248 -0.134776,0.134772 -0.320291,0.219177 -0.522492,0.219177 -0.206866,0 -0.392213,-0.0819016 -0.525988,-0.215673 -0.133768,-0.133768 -0.215669,-0.319106 -0.215669,-0.525984 0,-0.205866 0.0834331,-0.390224 0.216874,-0.523654z"/>
  <path class="fil0" d="M3.55761 0.960319c0,-0.0589094 -0.0477598,-0.106669 -0.106669,-0.106669 -0.0589094,0 -0.106669,0.0477598 -0.106669,0.106669l0 0.64c0,0.0589094 0.0477598,0.106669 0.106669,0.106669 0.0589094,0 0.106669,-0.0477598 0.106669,-0.106669l0 -0.64z"/>
  <path class="fil0" d="M4.72135 1.27281c0.0239291,-0.0536142 -0.000133858,-0.116488 -0.053748,-0.140417 -0.0536142,-0.0239291 -0.116488,0.000133858 -0.140417,0.053748l-0.261409 0.584181c-0.0239291,0.0536142 0.000133858,0.116488 0.053748,0.140417 0.0536142,0.0239291 0.116488,-0.000133858 0.140417,-0.053748l0.261409 -0.584181z"/>
  <path class="fil0" d="M2.29947 1.18614c-0.0239291,-0.0536142 -0.0868031,-0.0776772 -0.140417,-0.053748 -0.0536142,0.0239291 -0.0776772,0.0868031 -0.053748,0.140417l0.261409 0.584181c0.0239291,0.0536142 0.0868031,0.0776772 0.140417,0.053748 0.0536142,-0.0239291 0.0776772,-0.0868031 0.053748,-0.140417l-0.261409 -0.584181z"/>
 </g>
 <rect class="fil1" width="6.82666" height="6.82666"/>
</svg>
